<?xml version="1.0" encoding="UTF-8"?>
<svg id="Kapybara" xmlns="http://www.w3.org/2000/svg" xmlns:xlink="http://www.w3.org/1999/xlink" viewBox="0 0 330.1 332.23">
  <defs>
    <style>
      .cls-1 {
        fill: #604c3f;
      }

      .cls-2 {
        fill: url(#_未命名的渐变);
        stroke: url(#_未命名的渐变_2);
        stroke-miterlimit: 10;
      }
    </style>
    <linearGradient id="_未命名的渐变" data-name="未命名的渐变" x1=".5" y1="547.97" x2="329.6" y2="547.97" gradientTransform="translate(0 -381.86)" gradientUnits="userSpaceOnUse">
      <stop offset=".08" stop-color="#fff21f"/>
      <stop offset=".12" stop-color="#ffe400"/>
      <stop offset=".17" stop-color="#fed700"/>
      <stop offset=".22" stop-color="#fdcf00"/>
      <stop offset=".27" stop-color="#fccd00"/>
      <stop offset=".49" stop-color="#f1942e"/>
      <stop offset=".89" stop-color="#ea652d"/>
      <stop offset="1" stop-color="#e5352b"/>
    </linearGradient>
    <linearGradient id="_未命名的渐变_2" data-name="未命名的渐变 2" x1="0" y1="164.85" x2="330.1" y2="164.85" gradientTransform="translate(0 330.96) scale(1 -1)" gradientUnits="userSpaceOnUse">
      <stop offset=".08" stop-color="#fff21f"/>
      <stop offset=".12" stop-color="#ffe400"/>
      <stop offset=".17" stop-color="#fed700"/>
      <stop offset=".22" stop-color="#fdcf00"/>
      <stop offset=".27" stop-color="#fccd00"/>
      <stop offset=".49" stop-color="#f1942e"/>
      <stop offset=".89" stop-color="#ea652d"/>
      <stop offset="1" stop-color="#e5352b"/>
    </linearGradient>
  </defs>
  <g id="outer_ring" data-name="outer ring">
    <g id="_图层_1" data-name=" 图层 1">
      <path class="cls-2" d="M321.91,232.04c-9.6-10.6-25.6-13.1-37-9.4-16.3,5.2-20.4,21.6-28.3,32.3-30.1,40.9-148.2,45.5-185.9-8.9-19.9-28.6-11.6-65.5-3.2-102.3,7.9-34.4,24.5-51.9,34.3-61.1h0c-1.9-1.2-3.7-2.4-5.2-4-5.5-5.7-8.1-15.9-2.2-21.7,5.2-5.1,11.3-6.1,16-2,3.2,1.9,6.9,9.5,8.1,13.1,.5,2.4,.8,2.7,1,1.7,14.3-7.5,28.6-11.1,38.7-12.4,11.6-1.6,30.2-4.6,50.9,2.8,2.8,1,5,1.9,6.5,2.6,.9-9.3,5.5-17,12.2-19.4,1.3-.5,5.7-2,10.1,0,4.2,1.9,5.9,5.8,6.4,7,2.3,6-.5,13.8-7.1,19.4,1.7,1,4.2,2.4,7.3,4.1,4.8,2.6,8.6,4.6,9.4,5,4.8,2.4,15.5,7.7,27.5,7.9,5.9,.1,19.3,0,28-9.7,9.6-10.8,5.8-27,5.6-28C306.41,14.14,216.91-11.86,141.31,6.64,91.61,18.84,61.41,47.04,54.31,53.94c-10.1,9.7-40.9,42.1-50.2,93.9-2.9,15.8-13.5,74.2,23.9,121.7,22.1,28.2,51.8,40.6,66,46.6,26.6,11.3,49.1,13.4,65.5,14.9,7.6,.6,53.7,4.2,105.1-13.8,9.9-3.5,20.6-8.3,32-16.2,12.7-8.9,29.3-20.4,32.4-39.5h0c.5-3.4,2.8-18-7.1-29.5Z"/>
    </g>
  </g>
  <g id="nose">
    <path id="nose_step4" data-name="nose step4" class="cls-1" d="M140.91,144.34c4.4-.2,7.6-.1,10.9,0,8.7,.3,9.4,1,9.5,1.5,.4,1.2-2.4,3.1-4,4-1.9,1.1-5.6,3.5-11,3.6-1,0-7.1,0-11.7-4-1-.9-2.7-2.2-2.2-3.4,.1-.7,.9-1.4,8.5-1.7h0Z"/>
    <g id="nose_step3" data-name="nose step3">
      <path class="cls-1" d="M144.01,149.74c-3.9,10.8-4.4,22.5-4.6,33.9-.1,6.1-.2,12.3-.2,18.4s0,11.9,.7,17.7c.9,6.5,2.7,12.7,5.3,18.8,.6,1.3,2.8,1.7,3.9,1,1.5-.9,1.6-2.5,1-3.8-2.2-4.9-3.7-10.2-4.5-15.5-.9-5.6-.8-11.3-.8-16.9,0-11.4-.1-23,.9-34.4,.6-6,1.6-12.1,3.8-17.9,.6-1.4-.6-3-2.1-3.5-1.4-.2-2.8,.7-3.4,2.2h0Z"/>
    </g>
    <g id="nose_step2" data-name="nose step2">
      <path class="cls-1" d="M144.71,234.74c-.2,.1-.5,.2-.7,.4,.2-.1,.5-.2,.7-.2-.5,.2-1,.3-1.6,.5,.2,0,.5-.1,.8-.1-2.1,.2-4.3,.3-6.4,.6-.8,.1-1.5,.2-2.1,.8-.5,.5-.9,1.2-.8,2,.1,1.4,1.3,2.9,2.9,2.8s3.4-.2,5-.4c1.7-.1,3.7-.2,5.2-1.2,.6-.4,1.2-.9,1.3-1.7,.2-.7,.1-1.6-.2-2.1-.8-1.5-2.7-2.3-4.1-1.4h0Z"/>
    </g>
    <g id="nose_step1" data-name="nose step1">
      <path class="cls-1" d="M147.21,239.14c2.5,1.6,5.5,2.7,8.6,3.2,.8,.1,1.5,.1,2.2-.2,.6-.3,1.2-1,1.3-1.7,.1-.7,.1-1.6-.2-2.1s-1-1.1-1.7-1.2c-1.6-.2-3.2-.8-4.7-1.3,.2,.1,.5,.2,.7,.2-1-.4-2.1-1-3.1-1.6-1.3-.8-3.2-.3-3.9,1-1.1,1.2-.6,2.9,.8,3.7h0Z"/>
    </g>
  </g>
</svg>